<mxfile host="app.diagrams.net" modified="2023-05-14T05:19:19.095Z" agent="Mozilla/5.0 (Windows NT 10.0; Win64; x64; rv:109.0) Gecko/20100101 Firefox/113.0" version="21.3.0" etag="eJio2zhzBilcor3wHx95" type="github">
  <diagram name="Page-1" id="HUuvQruXgSc7d3pRaRLm">
    <mxGraphModel>
      <root>
        <mxCell id="0" />
        <mxCell id="1" parent="0" />
      </root>
    </mxGraphModel>
  </diagram>
</mxfile>
